<mxfile host="app.diagrams.net" modified="2024-07-15T14:29:54.187Z" agent="Mozilla/5.0 (Macintosh; Intel Mac OS X 10_15_7) AppleWebKit/537.36 (KHTML, like Gecko) Chrome/126.0.0.0 Safari/537.36" etag="P4b1u4SXahztb6SzOJvk" version="24.6.4" type="device">
  <diagram id="C5RBs43oDa-KdzZeNtuy" name="Page-1">
    <mxGraphModel dx="1026" dy="624" grid="1" gridSize="10" guides="1" tooltips="1" connect="1" arrows="1" fold="1" page="1" pageScale="1" pageWidth="827" pageHeight="1169" math="0" shadow="0">
      <root>
        <mxCell id="WIyWlLk6GJQsqaUBKTNV-0" />
        <mxCell id="WIyWlLk6GJQsqaUBKTNV-1" parent="WIyWlLk6GJQsqaUBKTNV-0" />
        <mxCell id="r-XMjvqk-Ne8seD7Z2VD-2" style="edgeStyle=orthogonalEdgeStyle;rounded=0;orthogonalLoop=1;jettySize=auto;html=1;exitX=0.5;exitY=1;exitDx=0;exitDy=0;entryX=0.5;entryY=0;entryDx=0;entryDy=0;" edge="1" parent="WIyWlLk6GJQsqaUBKTNV-1" source="WIyWlLk6GJQsqaUBKTNV-3" target="r-XMjvqk-Ne8seD7Z2VD-1">
          <mxGeometry relative="1" as="geometry" />
        </mxCell>
        <mxCell id="WIyWlLk6GJQsqaUBKTNV-3" value="START" style="rounded=1;whiteSpace=wrap;html=1;fontSize=12;glass=0;strokeWidth=1;shadow=0;" parent="WIyWlLk6GJQsqaUBKTNV-1" vertex="1">
          <mxGeometry x="354" y="20" width="120" height="40" as="geometry" />
        </mxCell>
        <mxCell id="r-XMjvqk-Ne8seD7Z2VD-7" value="" style="edgeStyle=orthogonalEdgeStyle;rounded=0;orthogonalLoop=1;jettySize=auto;html=1;" edge="1" parent="WIyWlLk6GJQsqaUBKTNV-1" source="r-XMjvqk-Ne8seD7Z2VD-1" target="r-XMjvqk-Ne8seD7Z2VD-6">
          <mxGeometry relative="1" as="geometry" />
        </mxCell>
        <mxCell id="r-XMjvqk-Ne8seD7Z2VD-1" value="Print auction logo" style="rounded=1;whiteSpace=wrap;html=1;fontSize=12;glass=0;strokeWidth=1;shadow=0;" vertex="1" parent="WIyWlLk6GJQsqaUBKTNV-1">
          <mxGeometry x="354" y="80" width="120" height="40" as="geometry" />
        </mxCell>
        <mxCell id="r-XMjvqk-Ne8seD7Z2VD-9" value="" style="edgeStyle=orthogonalEdgeStyle;rounded=0;orthogonalLoop=1;jettySize=auto;html=1;" edge="1" parent="WIyWlLk6GJQsqaUBKTNV-1" source="r-XMjvqk-Ne8seD7Z2VD-6" target="r-XMjvqk-Ne8seD7Z2VD-8">
          <mxGeometry relative="1" as="geometry" />
        </mxCell>
        <mxCell id="r-XMjvqk-Ne8seD7Z2VD-6" value="Print welcome message" style="rounded=1;whiteSpace=wrap;html=1;glass=0;strokeWidth=1;shadow=0;" vertex="1" parent="WIyWlLk6GJQsqaUBKTNV-1">
          <mxGeometry x="354" y="140" width="120" height="40" as="geometry" />
        </mxCell>
        <mxCell id="r-XMjvqk-Ne8seD7Z2VD-11" value="" style="edgeStyle=orthogonalEdgeStyle;rounded=0;orthogonalLoop=1;jettySize=auto;html=1;" edge="1" parent="WIyWlLk6GJQsqaUBKTNV-1" source="r-XMjvqk-Ne8seD7Z2VD-8" target="r-XMjvqk-Ne8seD7Z2VD-10">
          <mxGeometry relative="1" as="geometry" />
        </mxCell>
        <mxCell id="r-XMjvqk-Ne8seD7Z2VD-8" value="Get user name" style="rounded=1;whiteSpace=wrap;html=1;glass=0;strokeWidth=1;shadow=0;" vertex="1" parent="WIyWlLk6GJQsqaUBKTNV-1">
          <mxGeometry x="354" y="190" width="120" height="40" as="geometry" />
        </mxCell>
        <mxCell id="r-XMjvqk-Ne8seD7Z2VD-33" style="edgeStyle=orthogonalEdgeStyle;rounded=0;orthogonalLoop=1;jettySize=auto;html=1;exitX=0.5;exitY=1;exitDx=0;exitDy=0;entryX=0.5;entryY=0;entryDx=0;entryDy=0;" edge="1" parent="WIyWlLk6GJQsqaUBKTNV-1" source="r-XMjvqk-Ne8seD7Z2VD-10" target="r-XMjvqk-Ne8seD7Z2VD-32">
          <mxGeometry relative="1" as="geometry" />
        </mxCell>
        <mxCell id="r-XMjvqk-Ne8seD7Z2VD-10" value="Get user bid" style="rounded=1;whiteSpace=wrap;html=1;glass=0;strokeWidth=1;shadow=0;" vertex="1" parent="WIyWlLk6GJQsqaUBKTNV-1">
          <mxGeometry x="354" y="240" width="120" height="40" as="geometry" />
        </mxCell>
        <mxCell id="r-XMjvqk-Ne8seD7Z2VD-20" value="" style="edgeStyle=orthogonalEdgeStyle;rounded=0;orthogonalLoop=1;jettySize=auto;html=1;" edge="1" parent="WIyWlLk6GJQsqaUBKTNV-1" source="r-XMjvqk-Ne8seD7Z2VD-12" target="r-XMjvqk-Ne8seD7Z2VD-19">
          <mxGeometry relative="1" as="geometry" />
        </mxCell>
        <mxCell id="r-XMjvqk-Ne8seD7Z2VD-21" value="Yes" style="edgeLabel;html=1;align=center;verticalAlign=middle;resizable=0;points=[];" vertex="1" connectable="0" parent="r-XMjvqk-Ne8seD7Z2VD-20">
          <mxGeometry x="-0.4241" y="2" relative="1" as="geometry">
            <mxPoint as="offset" />
          </mxGeometry>
        </mxCell>
        <mxCell id="r-XMjvqk-Ne8seD7Z2VD-24" value="" style="edgeStyle=orthogonalEdgeStyle;rounded=0;orthogonalLoop=1;jettySize=auto;html=1;" edge="1" parent="WIyWlLk6GJQsqaUBKTNV-1" source="r-XMjvqk-Ne8seD7Z2VD-12" target="r-XMjvqk-Ne8seD7Z2VD-23">
          <mxGeometry relative="1" as="geometry" />
        </mxCell>
        <mxCell id="r-XMjvqk-Ne8seD7Z2VD-25" value="No" style="edgeLabel;html=1;align=center;verticalAlign=middle;resizable=0;points=[];" vertex="1" connectable="0" parent="r-XMjvqk-Ne8seD7Z2VD-24">
          <mxGeometry x="-0.4699" y="2" relative="1" as="geometry">
            <mxPoint x="11" y="2" as="offset" />
          </mxGeometry>
        </mxCell>
        <mxCell id="r-XMjvqk-Ne8seD7Z2VD-12" value="Are there any other bidders?" style="rhombus;whiteSpace=wrap;html=1;rounded=1;glass=0;strokeWidth=1;shadow=0;" vertex="1" parent="WIyWlLk6GJQsqaUBKTNV-1">
          <mxGeometry x="351" y="400" width="126" height="100" as="geometry" />
        </mxCell>
        <mxCell id="r-XMjvqk-Ne8seD7Z2VD-22" style="edgeStyle=orthogonalEdgeStyle;rounded=0;orthogonalLoop=1;jettySize=auto;html=1;exitX=0.5;exitY=0;exitDx=0;exitDy=0;entryX=0;entryY=0.5;entryDx=0;entryDy=0;" edge="1" parent="WIyWlLk6GJQsqaUBKTNV-1" source="r-XMjvqk-Ne8seD7Z2VD-19" target="r-XMjvqk-Ne8seD7Z2VD-6">
          <mxGeometry relative="1" as="geometry" />
        </mxCell>
        <mxCell id="r-XMjvqk-Ne8seD7Z2VD-19" value="Clear screen" style="whiteSpace=wrap;html=1;rounded=1;glass=0;strokeWidth=1;shadow=0;" vertex="1" parent="WIyWlLk6GJQsqaUBKTNV-1">
          <mxGeometry x="170" y="240" width="120" height="40" as="geometry" />
        </mxCell>
        <mxCell id="r-XMjvqk-Ne8seD7Z2VD-27" value="" style="edgeStyle=orthogonalEdgeStyle;rounded=0;orthogonalLoop=1;jettySize=auto;html=1;" edge="1" parent="WIyWlLk6GJQsqaUBKTNV-1" source="r-XMjvqk-Ne8seD7Z2VD-23" target="r-XMjvqk-Ne8seD7Z2VD-26">
          <mxGeometry relative="1" as="geometry" />
        </mxCell>
        <mxCell id="r-XMjvqk-Ne8seD7Z2VD-23" value="Print the winner with the highest bid" style="whiteSpace=wrap;html=1;rounded=1;glass=0;strokeWidth=1;shadow=0;" vertex="1" parent="WIyWlLk6GJQsqaUBKTNV-1">
          <mxGeometry x="560" y="320" width="120" height="60" as="geometry" />
        </mxCell>
        <mxCell id="r-XMjvqk-Ne8seD7Z2VD-26" value="FINISH" style="whiteSpace=wrap;html=1;rounded=1;glass=0;strokeWidth=1;shadow=0;" vertex="1" parent="WIyWlLk6GJQsqaUBKTNV-1">
          <mxGeometry x="560" y="410" width="120" height="40" as="geometry" />
        </mxCell>
        <mxCell id="r-XMjvqk-Ne8seD7Z2VD-28" style="edgeStyle=orthogonalEdgeStyle;rounded=0;orthogonalLoop=1;jettySize=auto;html=1;exitX=0.5;exitY=1;exitDx=0;exitDy=0;" edge="1" parent="WIyWlLk6GJQsqaUBKTNV-1" source="r-XMjvqk-Ne8seD7Z2VD-26" target="r-XMjvqk-Ne8seD7Z2VD-26">
          <mxGeometry relative="1" as="geometry" />
        </mxCell>
        <mxCell id="r-XMjvqk-Ne8seD7Z2VD-34" style="edgeStyle=orthogonalEdgeStyle;rounded=0;orthogonalLoop=1;jettySize=auto;html=1;exitX=0.5;exitY=1;exitDx=0;exitDy=0;entryX=0.5;entryY=0;entryDx=0;entryDy=0;" edge="1" parent="WIyWlLk6GJQsqaUBKTNV-1" source="r-XMjvqk-Ne8seD7Z2VD-32" target="r-XMjvqk-Ne8seD7Z2VD-12">
          <mxGeometry relative="1" as="geometry" />
        </mxCell>
        <mxCell id="r-XMjvqk-Ne8seD7Z2VD-32" value="Add Name and Bid to the dictionary" style="rounded=1;whiteSpace=wrap;html=1;" vertex="1" parent="WIyWlLk6GJQsqaUBKTNV-1">
          <mxGeometry x="354" y="310" width="120" height="50" as="geometry" />
        </mxCell>
      </root>
    </mxGraphModel>
  </diagram>
</mxfile>
